<svg width="540" height="386" viewBox="0 0 540 386" fill="none" xmlns="http://www.w3.org/2000/svg">
<path d="M478 161L280 368.001L29.5 258L158 61.5L418 0L478 161Z" fill="#FDF7F1"/>
<path d="M148.558 188.434L146.257 179.352C141.796 177.837 132.841 174.986 132.704 175.699C132.566 176.412 132.038 183.447 131.791 186.876L140.347 189.452L148.558 188.434Z" fill="#1E1E1E"/>
<path d="M137.119 135.627L166.12 137.906L167.823 140.026L161.33 173.664L148.087 180.519L137.103 175.966L134.51 189.402L127.019 187.956L137.119 135.627Z" fill="#DEBCA4"/>
<path d="M131.995 161.589L118.268 155.903L112.158 187.559L125.979 192.754L131.995 161.589Z" fill="#1E1E1E"/>
<path d="M119.364 185.989L127.837 187.624L137.798 136.022L127.797 142.301L119.364 185.989Z" fill="#C2977B"/>
<path d="M151.985 165.968L156.207 166.331L155.029 157.993L151.985 165.968Z" fill="#C2977B"/>
<path d="M134.931 174.905L132.156 188.892L136.061 181.95L148.087 180.519L134.931 174.905Z" fill="#C2977B"/>
<path d="M135.415 146.218L139.563 138.796L143.456 136.021L126.363 122.763L123.866 124.073L117.283 127.498L100.929 173.434L105.203 180.992L115.985 187.958L123.033 157.502L125.288 157.937L126.984 170.844L135.415 146.218Z" fill="#474747"/>
<path d="M115.949 187.958L103.726 185.867L100.892 173.434L117.247 127.498L124.176 158.348L125.694 157.761L126.984 170.846L124.176 158.348L122.837 158.867L115.949 187.958Z" fill="#2B2B2B"/>
<path d="M170.039 157.466L144.97 147.912L139.527 138.789L123.848 124.069L132.659 115.454L158.813 116.353L174.37 135.029L170.039 157.466Z" fill="#2B2B2B"/>
<path d="M170.043 157.465L144.974 147.912L139.53 138.789L132.662 115.454L158.817 116.353L174.374 135.028L170.043 157.465Z" fill="#474747"/>
<path d="M158.817 116.353L174.374 135.028L173.291 140.638L157.393 121.27L132.662 115.454L145.74 115.903L158.817 116.353Z" fill="#8F8F8F"/>
<path d="M125.643 156.685L127.935 158.882L126.366 167.009L123.481 167.886L121.438 166.058L120.953 160.363L122.592 157.247L125.643 156.685Z" fill="#C2977B"/>
<path d="M123.569 166.356L123.787 165.229L123.092 164.529L122.902 165.511L123.569 166.356Z" fill="#A4806B"/>
<path d="M125.916 160.642L125.429 163.169L124.997 165.406L124.177 165.549L123.928 163.615L124.777 162.44L123.25 162.145L122.68 160.017L124.18 158.892L125.916 160.642Z" fill="#A4806B"/>
<path d="M178.279 312.566L56.5321 340.604L0 385.158H56.5321H539.945V217.698L450.794 224.277L178.279 312.566Z" fill="#DEBCA4"/>
<path d="M352.263 318.299L147.88 365.338L56.5664 385.158H540V217.698L518.245 242.405L419.687 258.921L352.263 318.299Z" fill="#C2977B"/>
<path d="M352.263 345.941L147.88 373.532L56.5664 385.158L523.978 366.157L540 286.931L518.245 301.424L419.687 311.112L352.263 345.941Z" fill="#A4806B"/>
<path d="M505.11 223.922L500.742 229.164L510.652 232.931L517.341 229.164L515.593 225.67L505.11 223.922Z" fill="#A4806B"/>
<path d="M449.096 239.866L446.797 242.122L448.407 243.579L453.594 243.77L454.959 240.975L452.393 238.719L449.096 239.866Z" fill="#A4806B"/>
<path d="M445.374 244.544L443.858 244.392L443.092 245.029L443.334 246.294L445.111 246.13L446.293 245.126L445.374 244.544Z" fill="#C2977B"/>
<path d="M429.188 233.696L425.639 236.48L422.745 238.91L431.645 236.48L439.18 233.696H429.188Z" fill="#C2977B"/>
<path d="M63.9396 342.733L59.5715 347.975L69.4815 351.742L76.1701 347.975L74.4229 344.48L63.9396 342.733Z" fill="#CDA990"/>
<path d="M72.2721 365.12L69.9731 367.376L71.5839 368.833L76.7709 369.024L78.1359 366.228L75.5697 363.973L72.2721 365.12Z" fill="#A4806B"/>
<path d="M251.553 330.776L249.254 333.032L250.865 334.489L256.052 334.68L257.417 331.885L254.851 329.629L251.553 330.776Z" fill="#A4806B"/>
<path d="M68.551 369.797L67.0344 369.645L66.268 370.283L66.5106 371.548L68.288 371.384L69.4691 370.38L68.551 369.797Z" fill="#C2977B"/>
<path d="M177.397 318.364L175.88 318.212L175.114 318.849L175.357 320.114L177.134 319.95L178.315 318.946L177.397 318.364Z" fill="#C2977B"/>
<path d="M201.148 346.046L199.631 345.894L198.865 346.531L199.107 347.797L200.885 347.633L202.066 346.629L201.148 346.046Z" fill="#C2977B"/>
<path d="M52.364 358.95L48.815 361.734L45.9211 364.164L54.821 361.734L62.3559 358.95H52.364Z" fill="#C2977B"/>
<path d="M341.527 313.852L323.591 311.34L316.192 292.749L345.103 308.365L353.758 319.776L341.527 313.852Z" fill="#C2977B"/>
<path d="M103.853 355.976L91.2285 350.17L175.454 323.171L217.751 319.761L190.29 336.901L103.853 355.976Z" fill="#C2977B"/>
<path d="M166.49 191.486L163.417 202.1L197.006 196.33L196.649 188.4L168.943 191.289L166.49 191.486Z" fill="#DEBCA4"/>
<path d="M166.489 191.486L144.491 190.198L146.806 206.971L163.416 202.1L166.489 191.486Z" fill="#738D57"/>
<path d="M108.271 248.068L143.323 254.812L143.656 248.068L141.735 228.44L149.844 212.775L149.844 201.532L144.393 190.198L131.183 195.32L117.966 184.286L111.184 187.529L107.179 197.017L109.317 235.125L108.271 248.068Z" fill="#99C26D"/>
<path d="M108.27 248.068L143.323 254.812L143.656 248.068L141.734 228.44L108.27 248.068Z" fill="#738D57"/>
<path d="M133.291 188.682L119.143 180.191L111.256 187.549L134.18 200.402L144.491 190.198L135.106 186.117L133.291 188.682Z" fill="#738D57"/>
<path d="M205.314 173.784L201.069 177.747L197.031 188.422L197.388 197.615L203.416 196.644L206.34 193.716L207.896 175.541L205.314 173.784Z" fill="#C2977B"/>
<path d="M247.056 304.945L264.474 293.642L424.945 235.766L420.249 247.996L381.182 287.527L366.113 293.642L310.584 311.988L247.056 304.945Z" fill="#C2977B"/>
<path d="M430.499 174.36L416.797 238.865L365.838 287.008L299.333 306.613L241.142 291.453L205.108 255.697L181.204 209.225L177.012 157.752L190.584 118.061L214.859 84.742L256.977 55.4859L302.205 46.2323L343.891 49.6295L382.687 71.3676L417.709 111.882L430.499 174.36Z" fill="#4F5253"/>
<path d="M417.709 111.882L430.499 174.36L365.838 287.008L299.333 306.613L205.108 255.697L177.012 157.752L190.584 118.061L256.977 55.4859L302.205 46.2323L382.687 71.3676L417.709 111.882Z" fill="#2B2B2B"/>
<path d="M256.999 55.4811L382.709 71.3627L430.499 174.359L299.355 306.609L177.034 157.747L256.999 55.4811Z" fill="#4F5253"/>
<path d="M299.356 306.609L272.75 176.568L257 55.4814L215.357 167.327L299.356 306.609Z" fill="#8E8E8E"/>
<path d="M430.499 174.36L297.505 171.001L257 55.4812L430.499 174.36Z" fill="#8E8E8E"/>
<path d="M99.1039 346.064L94.6853 343.838L102.211 270.046L104.177 258.518L108.375 248.068H143.742L165.285 291.981L171.419 333.849L165.986 332.14L152.738 299.469L131.189 278.222L126.133 273.313L99.1039 346.064Z" fill="#474747"/>
<path d="M107.582 350.919L98.8594 345.071L95.7667 339.282L91.2268 350.171L107.582 350.919Z" fill="#474747"/>
<path d="M179.138 337.404L169.678 332.523L165.976 327.041L166.067 337.996L179.138 337.404Z" fill="#474747"/>
<path d="M141.49 205.074L135.645 217.843L178.511 212.938L178.511 205.381L143.939 205.335L141.49 205.074Z" fill="#DEBCA4"/>
<path d="M141.483 205.103L119.712 198.987L114.283 201.604L113.195 211.463L118.64 218.808L135.645 217.843L141.483 205.103Z" fill="#738D57"/>
<path d="M118.626 218.808L135.631 217.843L114.269 201.604L113.181 211.463L118.626 218.808Z" fill="#5A753D"/>
<path d="M183.948 193.034L181.777 195.638L178.51 205.383L178.512 212.938L184.593 212.57L186.068 207.133L186.713 194.785L183.948 193.034Z" fill="#C2977B"/>
<path d="M100.891 192.686L115.948 187.958L119.472 172.73L100.891 173.434L100.891 192.686Z" fill="#474747"/>
</svg>
