<svg width="540" height="385" viewBox="0 0 540 385" fill="none" xmlns="http://www.w3.org/2000/svg">
<path d="M494.5 161L296.5 368.001L46 258L174.5 61.5L434.5 0L494.5 161Z" fill="#FDF7F1"/>
<path d="M168.351 314.018C150.388 328.44 113.369 357.627 109 359L385 325.693L331.111 302C325.528 306.006 308.172 314.018 308.172 314.018L280.863 308.867H261.201C261.201 308.867 231.052 325.693 226.974 325.693H197.844L168.351 314.018Z" fill="#DEBCA4"/>
<path d="M186.853 345.905L68.1286 360.999L13 384.985H68.1286H539.54V294.831L452.602 298.373L386.164 310.256L319.727 322.139L253.29 334.022L186.853 345.905Z" fill="#C2977B"/>
<path d="M141.5 352.5L68.1286 360.999L13 384.985H68.1286H539.54V294.831L452.602 298.373L386.164 310.256L370 318.5L248.5 343.5L141.5 352.5Z" fill="#DEBCA4"/>
<path d="M356.924 348.991L157.615 374.315L68.5686 384.985H540V294.831L518.785 308.132L422.674 317.024L356.924 348.991Z" fill="#C2977B"/>
<path d="M356.924 363.872L157.615 378.727L68.5686 384.985L524.376 374.756L540 332.104L518.785 339.906L422.674 345.122L356.924 363.872Z" fill="#A4806B"/>
<path d="M505.976 298.182L501.716 301.004L511.38 303.032L517.903 301.004L516.199 299.122L505.976 298.182Z" fill="#A4806B"/>
<path d="M451.352 306.766L449.11 307.98L450.681 308.764L455.739 308.867L457.07 307.362L454.568 306.148L451.352 306.766Z" fill="#A4806B"/>
<path d="M447.723 309.284L446.244 309.202L445.497 309.545L445.734 310.226L447.467 310.138L448.619 309.597L447.723 309.284Z" fill="#C2977B"/>
<path d="M431.939 303.444L428.478 304.943L425.656 306.251L434.335 304.943L441.683 303.444H431.939Z" fill="#C2977B"/>
<path d="M156.413 361.868L152.154 364.69L161.818 366.718L168.34 364.69L166.636 362.809L156.413 361.868Z" fill="#CDA990"/>
<path d="M258.713 355.708L256.471 356.923L258.041 357.707L263.1 357.81L264.431 356.305L261.928 355.091L258.713 355.708Z" fill="#A4806B"/>
<path d="M80.2539 376.716L78.775 376.634L78.0276 376.977L78.2641 377.658L79.9974 377.57L81.1492 377.03L80.2539 376.716Z" fill="#C2977B"/>
<path d="M186.397 349.026L184.919 348.944L184.171 349.287L184.408 349.968L186.141 349.88L187.293 349.339L186.397 349.026Z" fill="#C2977B"/>
<path d="M209.559 363.929L208.08 363.847L207.333 364.19L207.569 364.872L209.302 364.783L210.454 364.243L209.559 363.929Z" fill="#C2977B"/>
<path d="M64.4689 370.876L61.008 372.375L58.186 373.683L66.865 372.375L74.2128 370.876H64.4689Z" fill="#C2977B"/>
<path d="M127.797 373.449L125.555 374.663L127.125 375.448L132.184 375.551L133.515 374.046L131.012 372.831L127.797 373.449Z" fill="#A4806B"/>
<path d="M498.948 226.042L497.748 205.658H463.48L449.425 301.752L454.655 300.105L475.595 234.72L480.461 229.988L506.477 300.105L510.73 297.959L498.948 226.042Z" fill="#474747"/>
<path d="M498.392 304.837L506.822 299.166L509.81 293.553L514.197 304.051L498.392 304.837Z" fill="#474747"/>
<path d="M442.893 304.856L451.38 299.185L454.311 293.572L455.422 303.994L442.893 304.856Z" fill="#474747"/>
<path d="M423.848 194.743L433.433 191.657L441.038 196.889L439.264 198.562L428.174 206.163L423.649 201.797L423.848 194.743Z" fill="#C2977B"/>
<path d="M462.109 171.335L462.116 185.365L439.264 198.562L433.433 191.657L449.58 180.256L455.933 175.666L462.109 171.335Z" fill="#DEBCA4"/>
<path d="M455.922 175.676L461.727 153.915L472.68 172.599L462.115 185.378L455.922 175.676Z" fill="#27788C"/>
<path d="M497.747 205.658H463.48L463.685 202.801L464.608 186.272L462.284 160.145L461.736 153.907L471.027 142.677L483.273 149.431L497.59 140.475L503.743 144.541L514.949 151.983L508.534 171.849L505.123 182.396L501.213 192.119L497.747 205.658Z" fill="#3AA0BA"/>
<path d="M480.043 88.5724L447.82 90.5959L454.41 127.58L479.458 130.32L481.178 139.962L481.942 144.264L489.72 142.878L480.043 88.5724Z" fill="#DEBCA4"/>
<path d="M497.885 140.937L489.097 142.503L479.552 88.9364L489.803 95.5859L497.885 140.937Z" fill="#C2977B"/>
<path d="M462.489 117.752L458.137 117.303L460.942 109.066L462.489 117.752Z" fill="#C2977B"/>
<path d="M483.004 109.613L480.259 94.2123L442.581 102.445L435.835 78.897L444.059 83.2149L454.208 78.4466L476.754 68.3145L482.284 80.9991L491.297 87.5524L498.525 104.959L493.996 119.085L492.957 113.253L489.298 108.89L487.585 99.2746L485.811 99.5906L487.525 109.206L483.004 109.613Z" fill="#474747"/>
<path d="M486.82 84.4975L481.575 81.142L478.814 94.3481L486.82 84.4975Z" fill="#4F5253"/>
<path d="M490.11 102.235L487.705 104.473L489.207 112.902L492.18 113.851L494.321 111.991L494.909 106.108L493.259 102.861L490.11 102.235Z" fill="#C2977B"/>
<path d="M492.445 115.089L492.235 113.909L492.941 113.194L493.124 114.222L492.445 115.089Z" fill="#A4806B"/>
<path d="M489.73 106.092L490.198 108.717L490.612 111.04L491.46 111.2L491.748 109.2L490.884 107.971L492.473 107.688L493.097 105.492L491.558 104.305L489.73 106.092Z" fill="#A4806B"/>
<path d="M481.86 130.006L484.388 143.759L480.448 136.519L454.496 127.479L481.86 130.006Z" fill="#C2977B"/>
<path d="M476.746 68.316L444.038 83.2116L446.016 92.2375L476.746 68.316Z" fill="#4F5253"/>
<path d="M482.199 142.698L497.066 136.337L503.732 144.557L479.766 153.984L471.107 142.641L481.178 139.962L482.199 142.698Z" fill="#27788C"/>
<path d="M500.308 180.811L514.843 175.784L517.624 165.842L514.95 151.983L501.612 153.128L497.371 159.883L500.308 180.811Z" fill="#27788C"/>
<path d="M433.642 157.574L415.431 164.482L404.487 175.973L420.715 193.637L434.548 212.583L432.736 218.602L430.906 234.453L454.777 228.434L470.816 230.452L499.047 218.414L485.385 206.752L473.535 186.9V174.144L475.364 151.367L464.797 149.914L438.737 159.028L433.642 157.574Z" fill="#F2F2F2"/>
<path d="M453.483 189.312L439.023 161.037L431.932 164.217L424.642 179.047L420.581 172.687L416.32 177.977L428.956 194.24L439.728 211.684L438.317 217.226L436.892 231.82L444.628 199.766L467.97 228.136L479.315 206.315L470.087 188.037V176.292L471.512 155.322L463.283 153.984L447.904 160.343L453.483 189.312Z" fill="#E5E5E5"/>
<path d="M471.533 187.454L481.599 187.195L487.42 194.36L485.247 195.464L472.464 199.63L469.353 194.165L471.533 187.454Z" fill="#C2977B"/>
<path d="M514.841 175.784L510.895 189.248L485.247 195.464L481.599 187.195L500.306 180.81L514.841 175.784Z" fill="#DEBCA4"/>
<path d="M479.191 197.028L474.111 200.734L468.579 197.188L467.885 187.942L475.234 186.402L479.191 197.028Z" fill="#DEBCA4"/>
<path d="M433.895 201.769L430.066 206.757L423.758 204.916L420.486 196.24L427.103 192.69L433.895 201.769Z" fill="#DEBCA4"/>
<path d="M89.1606 365.553L91.6768 363.486L95.5409 359.262L103.988 361.239L106.864 362.497L100.304 366.002L97.8773 364.115L93.6538 365.553H89.1606Z" fill="#A4806B"/>
<path d="M96.8355 56.6959L81.1225 64.5261L75.0515 68.6115L81.1225 109.72C85.2412 192.903 91.8359 364.205 91.8359 364.205L95.8104 361.688L101.562 363.845L103.988 361.329L96.8355 56.6959Z" fill="#4F5253"/>
<path d="M91.8757 100.013L81.1368 64.6038L75.0515 68.6881L81.1368 109.786C85.2653 192.947 91.8757 364.205 91.8757 364.205L98.236 351.493L91.8757 100.013Z" fill="#2B2B2B"/>
<path d="M145.077 68.6803L61.8211 98.8267L16.0411 113.006L17.6689 127.079L23.4715 134.448L23.6592 138.927L34.4769 157.568L161.699 104.902L171.428 74.6238L145.077 68.6803Z" fill="#C2977B"/>
<path d="M144.941 64.2474L61.6851 94.3939L16.0785 113.006L17.5328 122.646L24.0421 128.214L23.4715 134.448L34.3407 153.135L161.563 100.469L171.469 74.6247L144.941 64.2474Z" fill="#DEBCA4"/>
<path d="M24.0444 128.213L23.4715 134.448L53.8449 116.655L24.0444 128.213Z" fill="#A4806B"/>
<path d="M30.0455 172.674L112.814 141.215L156.763 122.099L164.709 133.828L165.118 143.198L167.897 146.715L171.858 167.901L41.0747 210.97L13.9494 194.368L30.0455 172.674Z" fill="#C2977B"/>
<path d="M27.3005 169.225L110.069 137.766L156.778 122.123L161.964 130.379L160.662 138.845L165.161 143.198L169.113 164.452L38.3297 207.522L13.963 194.395L27.3005 169.225Z" fill="#DEBCA4"/>
<path d="M19.0742 184.75L46.5661 175.314L16.2646 190.052L19.0742 184.75Z" fill="#A4806B"/>
<path d="M160.616 138.846L165.117 143.198L130.489 149.525L160.616 138.846Z" fill="#A4806B"/>
<path d="M136.518 73.2305L47.6342 105.202L36.5911 111.152L97.5527 92.9848L136.518 73.2305Z" fill="#C2977B"/>
<path d="M138.495 155.544L48.9022 191.13L37.8491 197.87L98.8656 177.291L138.495 155.544Z" fill="#C2977B"/>
<path d="M152.992 89.7652L115.828 108.212L111.027 109.715L110.04 111.407L89.7304 124.722L134.571 103.514L138.741 98.8428L152.992 89.7652Z" fill="#C2977B"/>
<path d="M71.1161 185.398L97.0685 175.494L105.785 173.157L115.419 166.677L136.437 156.263L104.707 167.945L85.9419 177.294L71.1161 185.398Z" fill="#A4806B"/>
</svg>
