<svg width="60" height="60" viewBox="0 0 60 60" fill="none" xmlns="http://www.w3.org/2000/svg">
<mask id="mask0" mask-type="alpha" maskUnits="userSpaceOnUse" x="0" y="0" width="60" height="60">
<circle cx="30" cy="30" r="30" fill="#DEBCA4"/>
</mask>
<g mask="url(#mask0)">
<path d="M42.5249 52.0726L39.6739 45.9993C36.3322 45.5396 29.6489 44.7502 29.6489 45.27C29.6489 45.7898 30.2324 50.8085 30.5241 53.2528L36.8892 53.9026L42.5249 52.0726Z" fill="#E4C728"/>
<path d="M27.3151 16.4961L48.0148 14.1623L49.5 15.422V39.9541L41.1193 46.5711L32.7785 44.8605V54.66H27.3151V16.4961Z" fill="#DEBCA4"/>
<path d="M27.2355 35.4454L16.8127 33.3105V56.3971L27.2355 58.174V35.4454Z" fill="#93811F"/>
<path d="M21.666 54.3152H27.8455V16.6818L21.666 22.4535V54.3152Z" fill="#C2977B"/>
<path d="M41.7692 33.1381L44.6865 32.3027L41.7692 27.025V33.1381Z" fill="#C2977B"/>
<path d="M31.1077 44.4095L31.0546 54.6202L32.8581 49.2099L41.1194 46.571L31.1077 44.4095Z" fill="#C2977B"/>
<path d="M30.7099 54.1561L21.5071 50.0718L14.5586 57.4447L33.3355 61.94L39.2762 54.7396L32.7786 51.6631L30.7099 54.1561Z" fill="#9075A0"/>
<path d="M27.5538 24.174L29.4634 18.3924L31.8237 15.9126L18.0063 8.91107L16.4282 10.1708L12.2644 13.4727L7 47.9899L11.0312 52.7239L19.5577 56.1584L20.3799 33.7879H22.0242L24.968 42.6326L27.5538 24.174Z" fill="#E4C728"/>
<path d="M19.5577 56.1584L11.0312 52.7239L7 47.9899L12.2644 13.4727L21.1148 33.7879H22.0242L24.968 42.6327L21.1148 33.7879H20.3799L19.5577 56.1584Z" fill="#FAD821"/>
<path d="M53.4252 27.383L34.5024 24.0679L29.4369 18.3924L16.415 10.1708L21.4408 2.91732L39.9525 0L53.4252 11.0195V27.383Z" fill="#FAD821"/>
<path d="M53.4251 27.383L34.5023 24.0679L29.4368 18.3924L21.4407 2.91732L39.9524 0L53.4251 11.0195V27.383Z" fill="#FFE13F"/>
<path d="M22.1037 32.8596L24.0132 34.0928V40.0203L22.1037 41.0281L20.4196 40.0203L19.3057 36.0819L20.035 33.6685L22.1037 32.8596Z" fill="#C2977B"/>
<path d="M21.958 39.9407V39.1186L21.3745 38.7208V39.4368L21.958 39.9407Z" fill="#A4806B"/>
<path d="M22.833 35.6045V37.4477V39.0788L22.2761 39.291L21.8385 37.9649L22.2761 37.0234H21.1622L20.4726 35.6045L21.3743 34.61L22.833 35.6045Z" fill="#A4806B"/>
</g>
</svg>
