<svg width="483" height="566" viewBox="0 0 483 566" fill="none" xmlns="http://www.w3.org/2000/svg">
<path d="M272.402 555.475L236.496 551.343L248.656 533.205L165.166 505.488L371.774 516.894L433.017 533.71L272.402 555.475Z" fill="#F5EDE6"/>
<path d="M356.785 175.734L354.344 157.338L328.981 147.727L332.355 176.688L349.677 191.303L360.041 189.726L356.785 175.734Z" fill="#443030"/>
<path d="M406.527 97.0397L389.097 110.391L380.941 85.7786L391.114 73.8624L401.509 85.1196L406.527 97.0397Z" fill="#543C3C"/>
<path d="M352.353 17.8055L372.041 44.4321L378.048 110.241L279.654 186.439L254.639 201.747L226.078 197.868L246.884 175.422L264.006 151.621L267.599 125.844L267.822 82.4968L296.36 28.1937L352.353 17.8055Z" fill="#543C3C"/>
<path d="M254.638 201.747L226.078 197.868L246.883 175.422L264.006 151.621L279.654 186.439L254.638 201.747Z" fill="#614A4A"/>
<path d="M352.353 17.8056L372.041 44.4322L267.822 82.4968L296.36 28.1937L352.353 17.8056Z" fill="#614A4A"/>
<path d="M282.757 149.132L289.938 121.86L312.479 112.672L310.152 154.818L290.961 168.322L282.757 149.132Z" fill="#443030"/>
<path d="M323.129 65.6441L388.479 61.9071L392.92 66.1168L388.671 143.086L361.231 162.395L335.358 155.583L333.66 186.329L316.519 185.383L323.129 65.6441Z" fill="#DEBCA4"/>
<path d="M298.857 183.322L318.245 184.393L324.763 66.3185L304.375 83.357L298.857 183.322Z" fill="#C2977B"/>
<path d="M365.596 120.361L374.894 118.246L366.655 101.182L365.596 120.361Z" fill="#C2977B"/>
<path d="M303.944 116.082L309.721 120.282L308.695 138.879L302.529 141.71L297.42 138.257L294.607 125.707L297.314 118.261L303.944 116.082Z" fill="#C2977B"/>
<path d="M302.256 138.273L302.399 135.694L300.637 134.344L300.513 136.591L302.256 138.273Z" fill="#A4806B"/>
<path d="M305.755 124.82L305.435 130.603L305.153 135.721L303.369 136.29L302.226 132.053L303.762 129.175L300.267 128.982L298.349 124.411L301.35 121.447L305.755 124.82Z" fill="#A4806B"/>
<path d="M401.246 73.9629L409.576 45.5445L353.255 36.1755L289.461 91.8707L278.839 136.104L401.246 73.9629Z" fill="#614A4A"/>
<path d="M353.26 36.1759L289.466 91.8711L353.33 52.2881L409.581 45.5449L353.26 36.1759Z" fill="#887272"/>
<path d="M13.2786 299.689L281.579 185.943L332.451 305.049L271.707 364.749L232.99 387.132L198.482 352.3L138.383 368.598L107.213 336.752L13.2786 299.689Z" fill="#E06B1D"/>
<path d="M171.366 250.67L281.578 185.943L332.451 305.049L271.707 364.749L259.148 255.517L198.482 352.299L242.753 218.931L107.213 336.752L171.366 250.67Z" fill="#CD6621"/>
<path d="M270.411 374.689L286.678 326.546L365.556 330.901L408.029 431.231L416.534 525.122L404.656 520.652L379.198 446.347L333.87 396.436L323.226 384.893L254.163 543.414L244.607 537.919L270.411 374.689Z" fill="#474747"/>
<path d="M408.589 262.697L392.101 212.004L379.892 261.289L392.121 282.072L408.589 262.697Z" fill="#4F5253"/>
<path d="M391.946 226.215L356.13 184.461L327.167 198.622L295.257 176.129L280.537 184.727L253.553 200.536L265.996 247.14L286.691 326.547L365.663 330.907L363.016 313.045L367.495 289.697L385 266L391.946 226.215Z" fill="#474747"/>
<path d="M280.213 285.001L273.101 255.184L254.509 204.042L286.676 326.546L291.914 326.836L280.213 285.001Z" fill="#FFA061"/>
<path d="M330.476 183.272L297.01 166.751L280.596 184.805L334.652 209.534L356.056 184.551L334.092 177.151L330.476 183.272Z" fill="#E06B1D"/>
<path d="M392.347 211.895L356.061 184.398L391.993 226.385L392.347 211.895Z" fill="#FFA061"/>
<path d="M215.81 290.403L235.361 355.036L243.427 342.17L241.891 282.094L226.182 268.465L215.81 290.403Z" fill="#DEBCA4"/>
<path d="M415.801 277.955L456.882 224.364L441.727 225.321L393.835 261.623L392.122 282.071L415.801 277.955Z" fill="#DEBCA4"/>
<path d="M226.134 268.65L253.552 200.536L265.917 247.209L241.884 282.315L226.134 268.65Z" fill="#4F5253"/>
<path d="M272.426 555.255L253.739 541.174L247.57 527.916L236.141 551.444L272.426 555.255Z" fill="#474747"/>
<path d="M433.269 533.978L412.825 521.957L405.263 509.309L404.12 533.69L433.269 533.978Z" fill="#474747"/>
<path d="M252.49 349.326L243.427 342.17L235.361 355.036L234.686 367.259L246.988 372.842L255.52 357.9L252.49 349.326Z" fill="#DEBCA4"/>
<path d="M440.04 211.9L441.39 225.526L456.545 224.57L468.211 214.462L462.657 200.844L445.236 204.436L440.04 211.9Z" fill="#DEBCA4"/>
<path d="M456.545 224.57L468.211 214.462L465.434 207.653L451.169 208.617L440.715 218.713L441.39 225.526L456.545 224.57Z" fill="#C2977B"/>
<path d="M252.392 344.767L243.427 342.17L235.361 355.036L234.686 367.259L256.197 351.983L252.392 344.767Z" fill="#C2977B"/>
</svg>
