<svg width="60" height="60" viewBox="0 0 60 60" fill="none" xmlns="http://www.w3.org/2000/svg">
<mask id="mask0" mask-type="alpha" maskUnits="userSpaceOnUse" x="0" y="0" width="60" height="60">
<circle cx="30" cy="30" r="30" fill="#E3E0DE"/>
</mask>
<g mask="url(#mask0)">
<path d="M23.811 13.3656L45.6788 10.8813L47.2478 12.2223V38.3348L38.3942 45.3782L29.5827 43.5573V53.9882H23.811V13.3656Z" fill="#DEBCA4"/>
<path d="M17.5333 53.5698H24.2295V13.3925L17.5333 19.5544V53.5698Z" fill="#C2977B"/>
<path d="M38.8775 30.97L42.2256 30.0549L38.8775 24.2738V30.97Z" fill="#C2977B"/>
<path d="M27.635 43.1069L27.5776 53.9882L29.5274 48.2225L38.459 45.4103L27.635 43.1069Z" fill="#C2977B"/>
<path d="M27.2287 53.4308L17.412 48.9661L10 57.0258L30.0294 61.94L36.3664 54.0687L29.4353 50.7056L27.2287 53.4308Z" fill="#F0805D"/>
<path d="M20.7783 32.2255L29.2516 18.2486L28.5431 12.4992L13.7787 5.02216L12.0925 6.36746L13.1836 24.4228L15.8474 31.6166L17.7886 30.8519L20.7783 32.2255Z" fill="#474747"/>
<path d="M50.5958 12.9739H28.5213L12.0925 6.50768L21.9442 0L36.8486 0.980989L42.8612 3.6338L50.5958 12.9739Z" fill="#4F5253"/>
<path fill-rule="evenodd" clip-rule="evenodd" d="M11.9817 6.47061L11.9817 6.47061L28.4578 13.095L28.4777 13.106L28.4153 12.5996L13.6661 5.12591L11.9817 6.47061Z" fill="#8E8E8E"/>
<path d="M18.0073 30.5515L20.0444 31.8784V38.256L18.0073 39.3403L16.2106 38.256L15.0223 34.0185L15.8004 31.4218L18.0073 30.5515Z" fill="#C2977B"/>
<path d="M17.9517 38.0847V37.2386L17.1146 36.8292V37.5661L17.9517 38.0847Z" fill="#A4806B"/>
<path d="M18.7888 33.7111V35.6886V37.4386L18.1963 37.6662L17.7308 36.2435L18.1963 35.2334H17.0113L16.2777 33.7111L17.237 32.644L18.7888 33.7111Z" fill="#A4806B"/>
</g>
</svg>
